# xmcd
#
# Track frame offsets:
#	150
#	15628
#	32104
#	48935
#	61659
#	81576
#	92892
#	107414
#	124397
#	138701
#	150659
#	163555
#	178524
#	193015
#	208423
#	223094
#	236887
#	248392
#	265043
#	278845
#	293636
#	308013
#
# Disc length: 4380 seconds
#
# Revision: 1
# Processed by: cddbd v1.5.2PL0 Copyright (c) Steve Scherf et al.
# Submitted via: audiograbber 1.83.01
#
DISCID=3d111a16
DTITLE=Stardust - Stardust 030
DYEAR=2001
DGENRE=Country
TTITLE0=This Gonna Be Someday - Troy Cook Jr
TTITLE1=Don´t Wake Me Up  - Lolene
TTITLE2=Huckleberry Boogie  - Johnny Law 
TTITLE3=I´m Knocking Wood  - Brandi Ward
TTITLE4=The Coldest Day In July - B. Jeff Stone
TTITLE5=Back To The Future  - Clint Brant
TTITLE6=Country Jaaz  - Brant Miller
TTITLE7=Before The Country Went Away  - Bob Normann
TTITLE8=Call Me On  - Jack Blanchard and Misty Morgan
TTITLE9=Graveyard Boogie  - Buster Doss and His Arkansas Playboys
TTITLE10=Feeling Kinda Of Loneley Tonight  - Don and Annie Kidwell
TTITLE11=Nashwille  - Don and Annie Kidwell
TTITLE12=Till You  - C J Reily 
TTITLE13=Friend  - Joyce Meré
TTITLE14=Stayin´s The Only Way To Go  - Dave Young
TTITLE15=Love In A Bottle  - Danny Wear
TTITLE16=Don´t Chance The Rose Of San Antone - Pap and The Sidemen
TTITLE17=If We Dare To Love  - Corina
TTITLE18=Acres Of Diamonds - Jerri Arnold
TTITLE19=You´re The Only One - Donnie Hendricks
TTITLE20=Let´s Go Dancing  - Rooster Quantrell
TTITLE21=One More Day For Mama  - The Whites
EXTD=
EXTT0=
EXTT1=
EXTT2=
EXTT3=
EXTT4=
EXTT5=
EXTT6=
EXTT7=
EXTT8=
EXTT9=
EXTT10=
EXTT11=
EXTT12=
EXTT13=
EXTT14=
EXTT15=
EXTT16=
EXTT17=
EXTT18=
EXTT19=
EXTT20=
EXTT21=
PLAYORDER=
